<?xml version="1.0" encoding="UTF-8"?>
<svg version="1.1" xmlns="http://www.w3.org/2000/svg" width="527" height="400">
<path d="M0 0 C0.65860016 -0.00272919 1.31720032 -0.00545837 1.99575806 -0.00827026 C4.24475321 -0.01241514 6.49324253 0.00061802 8.7421875 0.015625 C9.52887817 0.01806213 10.31556885 0.02049927 11.12609863 0.02301025 C28.79841839 0.08529501 46.46630311 0.57617011 64.13063812 1.07795715 C66.35984805 1.14041935 68.58911806 1.20009228 70.81842041 1.25915527 C74.38567146 1.35450051 77.95252896 1.45937481 81.51929855 1.57125473 C83.47687187 1.63091707 85.43468131 1.68266916 87.39248657 1.73416138 C106.90785327 2.38300737 106.90785327 2.38300737 113.2109375 8.58203125 C117.82313301 14.1038542 118.11230361 19.41230004 117.89453125 26.3984375 C117.36549281 31.8676518 115.68151391 35.52544632 111.6796875 39.390625 C107.70480383 42.58065903 103.22405544 44.14589076 98.5078125 45.96484375 C94.45818627 47.78717555 91.77768992 50.17695218 88.6171875 53.265625 C101.52801315 54.60041176 101.52801315 54.60041176 112.8671875 49.203125 C114.26710938 47.97529297 114.26710938 47.97529297 115.6953125 46.72265625 C118.80381473 44.10868847 122.00425161 42.19261903 125.6171875 40.390625 C126.6690625 39.85695312 127.7209375 39.32328125 128.8046875 38.7734375 C137.98565097 34.84056658 147.21909532 33.7799631 157.1171875 33.890625 C158.15488281 33.87902344 159.19257813 33.86742187 160.26171875 33.85546875 C170.82382995 33.89492869 180.44698973 36.09943885 189.8046875 41.015625 C190.48684326 41.36778076 191.16899902 41.71993652 191.87182617 42.08276367 C197.28459575 44.94804422 202.08485096 48.12343465 206.6171875 52.265625 C207.92042969 53.43158203 207.92042969 53.43158203 209.25 54.62109375 C223.65896245 68.20726029 236.17084192 88.11966082 236.92358398 108.41796875 C236.95677545 110.3461891 236.97773192 112.27464785 236.98828125 114.203125 C236.99730972 115.24146484 237.0063382 116.27980469 237.01564026 117.34960938 C237.03009341 119.54147485 237.03901716 121.73338298 237.04272461 123.92529297 C237.05455386 127.22830858 237.10373401 130.52941264 237.15429688 133.83203125 C237.35700475 160.21390129 228.3799951 181.40359022 209.8671875 200.515625 C197.60033774 212.68645629 180.40422842 221.22929896 162.92578125 221.4609375 C160.96865344 221.44784634 159.01156941 221.42429736 157.0546875 221.390625 C156.04599609 221.38160156 155.03730469 221.37257813 153.99804688 221.36328125 C151.53750293 221.33995856 149.07747854 221.30723263 146.6171875 221.265625 C146.63289795 222.26416504 146.6486084 223.26270508 146.66479492 224.29150391 C146.71931369 228.01505387 146.75361684 231.7385689 146.78198242 235.46240234 C146.79701926 237.07053572 146.81745422 238.67862844 146.84350586 240.28662109 C146.88011572 242.60524564 146.89696472 244.92332549 146.91015625 247.2421875 C146.92564011 247.95492828 146.94112396 248.66766907 146.95707703 249.40200806 C146.95890867 254.90075953 145.68933421 258.91137911 142.0390625 263.05859375 C141.48734375 263.51878906 140.935625 263.97898437 140.3671875 264.453125 C139.82578125 264.92105469 139.284375 265.38898438 138.7265625 265.87109375 C131.64994609 270.54952349 125.72615469 270.65453263 117.35983276 270.69067383 C98.38956696 270.79901617 79.47724302 272.03705287 60.5546875 273.265625 C59.51023909 273.33333666 59.51023909 273.33333666 58.4446907 273.40241623 C55.69205241 273.58094145 52.93942548 273.75963249 50.18686008 273.9392786 C45.64816337 274.23544711 41.10905788 274.5246964 36.56982422 274.8125 C32.30287677 275.08420521 28.04016734 275.38273647 23.77783203 275.71875 C22.10059356 275.83864836 20.42334811 275.95844919 18.74609375 276.078125 C17.6776548 276.17589233 17.6776548 276.17589233 16.58763123 276.27563477 C7.82633414 276.85824533 1.05624021 273.51202003 -5.49609375 268.01171875 C-9.14585227 264.63399192 -10.57463729 261.85319248 -11.1953125 256.953125 C-11.02320652 250.8116589 -7.82614673 246.7243468 -4.51855469 241.79492188 C6.56539451 225.04826637 11.91229553 206.23460192 11.6171875 186.265625 C11.03324219 187.06613281 11.03324219 187.06613281 10.4375 187.8828125 C-2.19417872 204.70564729 -19.09822487 217.95099496 -40.3828125 221.265625 C-63.010764 223.03078816 -83.35372225 219.46870193 -101.078125 204.359375 C-117.52883118 189.41432667 -126.38798158 172.42215549 -132.3828125 151.265625 C-139.54913967 162.15036233 -140.41005821 171.55723517 -140.13061523 184.36376953 C-140.06981987 187.28933083 -140.06909218 190.21060902 -140.07617188 193.13671875 C-140.06078176 195.01305271 -140.04202396 196.88936275 -140.01953125 198.765625 C-140.01821701 199.63131104 -140.01690277 200.49699707 -140.01554871 201.38891602 C-139.86735549 206.80862999 -138.96363732 209.95491591 -135.3828125 214.265625 C-133.36202989 216.05799966 -133.36202989 216.05799966 -131.1328125 217.390625 C-130.3490625 217.88820313 -129.5653125 218.38578125 -128.7578125 218.8984375 C-126.58656246 220.14833473 -124.40852967 221.22258796 -122.1328125 222.265625 C-116.88791784 224.79944091 -114.25588749 228.60979313 -111.5703125 233.703125 C-109.77537378 239.08794115 -109.65476312 243.13489666 -111.9453125 248.328125 C-116.23259361 256.0632196 -122.20021706 258.87337293 -130.3828125 261.265625 C-133.25203106 262.02889477 -136.13566834 262.70156171 -139.03271484 263.3503418 C-140.25176262 263.62897568 -140.25176262 263.62897568 -141.49543762 263.91323853 C-144.15209316 264.51881551 -146.81026134 265.11736917 -149.46875 265.71484375 C-151.33527101 266.13647403 -153.20177669 266.55817218 -155.06826782 266.97993469 C-158.96921721 267.85997664 -162.87105943 268.73593565 -166.7734375 269.60961914 C-171.75083925 270.72481083 -176.72467359 271.85512568 -181.6978054 272.98918438 C-185.54812119 273.86451273 -189.40077712 274.72917255 -193.25413895 275.59098244 C-195.08804416 276.00295822 -196.92109524 276.41875703 -198.75321579 276.83859825 C-223.97664808 282.60740022 -223.97664808 282.60740022 -232.59765625 277.59765625 C-237.53460442 273.91385028 -241.25212647 269.42158226 -242.3828125 263.265625 C-242.14369959 255.85312477 -240.12952981 249.94694428 -234.7578125 244.703125 C-232.88378215 243.27619834 -230.95268954 241.9826125 -228.984375 240.6875 C-218.29279133 233.55977755 -211.79156019 223.72414531 -208.3828125 211.265625 C-204.75523147 179.41193227 -226.66209835 148.1324755 -242.578125 121.98828125 C-245.10512548 117.81062626 -247.28557034 113.54543603 -249.3828125 109.140625 C-256.84815484 94.04143035 -267.76701084 85.94525127 -281.82421875 77.15234375 C-286.12763459 73.9789852 -288.83378382 70.38993706 -290.3828125 65.265625 C-291.01355217 59.81632764 -291.14515946 54.91229443 -288.8203125 49.890625 C-281.45552215 41.95931231 -276.36794279 39.61904181 -265.44867325 39.18954849 C-259.87188028 39.02399221 -254.2934691 38.95219158 -248.71484375 38.87890625 C-246.90744418 38.85320089 -245.10004571 38.82741728 -243.29264832 38.80155945 C-239.52138742 38.74885681 -235.75009803 38.69989487 -231.97875977 38.65307617 C-227.15699504 38.59251738 -222.33554463 38.5182665 -217.5140276 38.44070148 C-213.7882641 38.38301499 -210.06242114 38.3347662 -206.33649254 38.289114 C-204.55872501 38.26579517 -202.78099867 38.23906787 -201.00333595 38.20879555 C-198.51761661 38.16744528 -196.03207406 38.13938567 -193.54614258 38.11450195 C-192.45731781 38.09204659 -192.45731781 38.09204659 -191.34649658 38.06913757 C-186.60722547 38.03994882 -182.83107979 38.79185935 -178.3828125 40.265625 C-178.85332031 39.82992187 -179.32382813 39.39421875 -179.80859375 38.9453125 C-188.23243656 30.88772373 -188.23243656 30.88772373 -188.47265625 25.1015625 C-188.05404186 18.68280847 -185.82170137 14.70451387 -181.2578125 10.140625 C-171.88481685 4.02780175 -163.30209585 3.85330108 -152.4453125 4.390625 C-150.83658705 4.45530633 -149.22777649 4.51789781 -147.61889648 4.57861328 C-144.9514644 4.68056427 -142.28430003 4.78543642 -139.61732483 4.89877319 C-132.08540525 5.21720791 -124.5529376 5.43777322 -117.0169239 5.63432693 C-112.997789 5.7406972 -108.97890098 5.85601403 -104.96001339 5.97130394 C-101.6270923 6.06655081 -98.29422011 6.15691241 -94.96096802 6.24029541 C-91.18569393 6.33693479 -87.41135401 6.45157376 -83.63671875 6.5703125 C-81.93582092 6.60798737 -81.93582092 6.60798737 -80.20056152 6.64642334 C-72.47468318 6.91333441 -66.54738352 7.9259452 -60.5703125 13.203125 C-59.72533203 13.92822266 -59.72533203 13.92822266 -58.86328125 14.66796875 C-55.26504594 18.5510248 -55.15365887 21.80794353 -55.2578125 27.015625 C-55.27585938 28.18609375 -55.29390625 29.3565625 -55.3125 30.5625 C-55.33570313 31.45453125 -55.35890625 32.3465625 -55.3828125 33.265625 C-54.34125 33.27980469 -53.2996875 33.29398438 -52.2265625 33.30859375 C-33.64777328 33.8221218 -17.72993733 39.17304196 -3.671875 51.7265625 C-0.99940342 53.52341199 0.46183975 53.58896452 3.6171875 53.265625 C0.08649348 46.90794916 -2.82383818 42.17949774 -9.0390625 38.20703125 C-15.0458038 34.18936437 -19.47682003 28.92684976 -22.3828125 22.265625 C-22.92574679 17.46970547 -22.39447982 14.10019746 -19.7890625 9.96875 C-14.59077237 3.67304307 -8.09573378 0.01586732 0 0 Z M-174.3828125 44.265625 C-174.03347656 44.7503125 -173.68414062 45.235 -173.32421875 45.734375 C-169.94706039 50.70922584 -168.3828125 54.20885281 -168.3828125 60.265625 C-169.38777984 64.77916253 -171.44501831 68.47752356 -173.9453125 72.328125 C-178.27006275 79.01064571 -179.44348115 85.96228176 -177.8828125 93.765625 C-177.7178125 94.260625 -177.5528125 94.755625 -177.3828125 95.265625 C-176.7228125 95.265625 -176.0628125 95.265625 -175.3828125 95.265625 C-168.1188136 80.58229911 -168.1188136 80.58229911 -162.3828125 65.265625 C-162.0115625 64.255 -161.6403125 63.244375 -161.2578125 62.203125 C-161.51870538 56.07214234 -165.99844071 50.48542889 -170.1328125 46.140625 C-172.15074566 44.0522302 -172.15074566 44.0522302 -174.3828125 44.265625 Z M79.6171875 161.265625 C79.73529756 166.07129923 79.85953573 170.87676068 79.98950195 175.68212891 C80.03286288 177.31750153 80.07453711 178.95291977 80.11450195 180.58837891 C80.17217662 182.93666341 80.23587879 185.28471804 80.30078125 187.6328125 C80.31749374 188.36619843 80.33420624 189.09958435 80.35142517 189.85519409 C80.40356712 193.68764808 80.40356712 193.68764808 81.6171875 197.265625 C85.99371879 196.78942211 87.68256755 195.59662611 90.4296875 192.203125 C91.03425781 191.46964844 91.63882812 190.73617187 92.26171875 189.98046875 C92.70902344 189.41457031 93.15632813 188.84867188 93.6171875 188.265625 C93.09769531 187.40582031 92.57820313 186.54601562 92.04296875 185.66015625 C87.34487448 177.74508477 83.63222465 169.99183828 80.6171875 161.265625 C80.2871875 161.265625 79.9571875 161.265625 79.6171875 161.265625 Z " fill="#00F3F3" transform="translate(290.3828125,59.734375)"/>
<path d="M0 0 C1.59252594 -0.00302124 1.59252594 -0.00302124 3.21722412 -0.00610352 C4.39045227 -0.00151123 5.56368042 0.00308105 6.77246094 0.0078125 C8.00611389 0.01047119 9.23976685 0.01312988 10.51080322 0.01586914 C26.44821421 0.09351313 42.37641972 0.58283768 58.3059082 1.05993652 C62.46394365 1.1835717 66.62211424 1.3024879 70.78027344 1.421875 C78.85592865 1.65439846 86.93142698 1.89188848 95.00683594 2.1328125 C95.33683594 4.1128125 95.66683594 6.0928125 96.00683594 8.1328125 C95.245 8.42414063 94.48316406 8.71546875 93.69824219 9.015625 C76.66334016 15.7785449 67.50964053 24.66719811 60.00683594 41.1328125 C59.63300781 41.78765625 59.25917969 42.4425 58.87402344 43.1171875 C57.62129587 46.02893265 57.42009193 49.00510285 57.00683594 52.1328125 C64.28484004 52.16733272 71.5612551 52.14739385 78.83911133 52.09008789 C81.3133605 52.07697092 83.78770777 52.07619291 86.26196289 52.08813477 C89.82503436 52.10316882 93.38539275 52.07342667 96.94824219 52.03515625 C98.60020348 52.05653908 98.60020348 52.05653908 100.28553772 52.07835388 C105.76319995 51.97574397 109.09421979 51.71176228 113.05273438 47.71972656 C113.80620148 46.79731171 113.80620148 46.79731171 114.57489014 45.85626221 C120.44428719 38.79202093 133.26044603 33.81809251 142.00683594 32.1328125 C159.47265724 30.7866326 174.08098832 34.29166307 188.00683594 45.1328125 C189.13412109 45.99326172 189.13412109 45.99326172 190.28417969 46.87109375 C201.37045946 55.97002635 207.65570522 67.0369658 211.85058594 80.515625 C212.83727131 83.94881156 212.83727131 83.94881156 214.10058594 86.25 C217.08994606 92.46065337 216.26309529 100.34526894 216.30200195 107.06103516 C216.31343899 108.42800313 216.3337575 109.79492943 216.36352539 111.16162109 C216.84184904 133.20726393 208.17055409 155.51824738 192.85449219 171.52734375 C180.46016364 182.86755931 165.7325973 188.93198446 148.88183594 188.51635742 C138.44551571 188.02776111 131.2032926 185.08115974 122.00683594 180.1328125 C122.07829834 180.74672852 122.14976074 181.36064453 122.22338867 181.99316406 C123.29092462 192.61071814 123.11688847 203.22386784 123.06933594 213.8828125 C123.06431031 215.85156136 123.05974929 217.82031146 123.05566406 219.7890625 C123.04474402 224.57034368 123.02753812 229.35156408 123.00683594 234.1328125 C121.50854248 234.19227051 121.50854248 234.19227051 119.97998047 234.25292969 C91.52975338 235.40151962 63.14560936 237.20733135 34.74511719 239.23046875 C31.47888923 239.46208518 28.21263958 239.6933861 24.9463501 239.9241333 C23.06209149 240.0578988 21.17792634 240.19299138 19.29388428 240.32977295 C16.98366781 240.49690456 14.67311575 240.65774788 12.36230469 240.81640625 C11.13535889 240.9033374 9.90841309 240.99026855 8.64428711 241.07983398 C7.77392822 241.09731689 6.90356934 241.1147998 6.00683594 241.1328125 C5.00683594 240.1328125 5.00683594 240.1328125 4.78417969 237.81640625 C5.03970976 234.73659648 5.72308324 233.62966658 7.56933594 231.1953125 C19.45516943 214.33597421 26.1959372 194.20794314 26.12036133 173.62939453 C26.12058037 172.06263222 26.12058037 172.06263222 26.12080383 170.46421814 C26.12010898 167.02299906 26.11233659 163.58183458 26.10449219 160.140625 C26.10262649 157.75023427 26.1012033 155.35984315 26.10020447 152.9694519 C26.09639125 146.68618713 26.08657116 140.40294556 26.07550049 134.11968994 C26.06526067 127.70479649 26.06070134 121.28989927 26.05566406 114.875 C26.04494783 102.29426095 26.02807871 89.71353796 26.00683594 77.1328125 C23.40085737 78.08643872 20.79709942 79.04548378 18.19433594 80.0078125 C17.45634766 80.27722656 16.71835937 80.54664063 15.95800781 80.82421875 C15.24580078 81.08847656 14.53359375 81.35273438 13.79980469 81.625 C13.14520264 81.86589355 12.49060059 82.10678711 11.81616211 82.35498047 C9.72787656 83.18807418 9.72787656 83.18807418 7.00683594 85.1328125 C7.14888334 86.71648997 7.29563746 88.29974568 7.44433594 89.8828125 C7.56615234 91.20539063 7.56615234 91.20539063 7.69042969 92.5546875 C7.935696 95.03880587 7.935696 95.03880587 8.50952148 97.02856445 C13.00693271 116.0581115 6.90691695 138.89459189 -2.86328125 155.32470703 C-12.64838191 170.98340528 -26.39733842 183.25162456 -44.75878906 187.65625 C-61.30873367 190.09476841 -75.36753593 187.67404809 -89.39941406 178.140625 C-106.59271249 164.83135483 -117.72520766 145.1166775 -120.72070312 123.67724609 C-123.29682414 99.61959986 -118.89903225 75.62615104 -103.75878906 56.27734375 C-101.58311112 53.79782112 -99.34394508 51.4462136 -96.99316406 49.1328125 C-96.34605469 48.48699219 -95.69894531 47.84117188 -95.03222656 47.17578125 C-84.41707169 37.2321974 -70.60304261 31.4680987 -56.06567383 31.73266602 C-43.27995745 32.27955892 -31.03058722 35.16972313 -21.65869141 44.44262695 C-14.65638445 51.36846454 -8.98950505 52.27173229 0.41503906 52.27929688 C2.00815488 52.25227826 3.60125422 52.22427174 5.19433594 52.1953125 C6.83041642 52.19839363 8.46649451 52.20552508 10.10253906 52.21679688 C14.07215371 52.23545839 18.03777477 52.19946849 22.00683594 52.1328125 C17.96122529 33.61914064 17.96122529 33.61914064 9.00683594 17.1328125 C8.10578125 15.88951172 8.10578125 15.88951172 7.18652344 14.62109375 C4.22093272 11.23564341 0.74348892 8.84289977 -2.92285156 6.26367188 C-4.3116753 5.26310305 -5.65674398 4.20236882 -6.99316406 3.1328125 C-6.99316406 2.4728125 -6.99316406 1.8128125 -6.99316406 1.1328125 C-4.49034765 -0.11859571 -2.80173765 0.00342638 0 0 Z M75.00683594 144.1328125 C75.124946 148.93848673 75.24918417 153.74394818 75.37915039 158.54931641 C75.42251131 160.18468903 75.46418555 161.82010727 75.50415039 163.45556641 C75.56182506 165.80385091 75.62552723 168.15190554 75.69042969 170.5 C75.70714218 171.23338593 75.72385468 171.96677185 75.74107361 172.72238159 C75.79321556 176.55483558 75.79321556 176.55483558 77.00683594 180.1328125 C81.38336723 179.65660961 83.07221599 178.46381361 85.81933594 175.0703125 C86.42390625 174.33683594 87.02847656 173.60335937 87.65136719 172.84765625 C88.09867188 172.28175781 88.54597656 171.71585938 89.00683594 171.1328125 C88.48734375 170.27300781 87.96785156 169.41320312 87.43261719 168.52734375 C82.73452292 160.61227227 79.02187308 152.85902578 76.00683594 144.1328125 C75.67683594 144.1328125 75.34683594 144.1328125 75.00683594 144.1328125 Z " fill="#000202" transform="translate(294.9931640625,76.8671875)"/>
<path d="M0 0 C0.65860016 -0.00272919 1.31720032 -0.00545837 1.99575806 -0.00827026 C4.24475321 -0.01241514 6.49324253 0.00061802 8.7421875 0.015625 C9.52887817 0.01806213 10.31556885 0.02049927 11.12609863 0.02301025 C28.79841839 0.08529501 46.46630311 0.57617011 64.13063812 1.07795715 C66.35984805 1.14041935 68.58911806 1.20009228 70.81842041 1.25915527 C74.38567146 1.35450051 77.95252896 1.45937481 81.51929855 1.57125473 C83.47687187 1.63091707 85.43468131 1.68266916 87.39248657 1.73416138 C106.90785327 2.38300737 106.90785327 2.38300737 113.2109375 8.58203125 C117.82313301 14.1038542 118.11230361 19.41230004 117.89453125 26.3984375 C117.36549281 31.8676518 115.68151391 35.52544632 111.6796875 39.390625 C107.70480383 42.58065903 103.22405544 44.14589076 98.5078125 45.96484375 C94.45818627 47.78717555 91.77768992 50.17695218 88.6171875 53.265625 C101.52801315 54.60041176 101.52801315 54.60041176 112.8671875 49.203125 C114.26710938 47.97529297 114.26710938 47.97529297 115.6953125 46.72265625 C118.80381473 44.10868847 122.00425161 42.19261903 125.6171875 40.390625 C126.6690625 39.85695312 127.7209375 39.32328125 128.8046875 38.7734375 C137.98565097 34.84056658 147.21909532 33.7799631 157.1171875 33.890625 C158.15488281 33.87902344 159.19257813 33.86742187 160.26171875 33.85546875 C170.82382995 33.89492869 180.44698973 36.09943885 189.8046875 41.015625 C190.48684326 41.36778076 191.16899902 41.71993652 191.87182617 42.08276367 C197.28459575 44.94804422 202.08485096 48.12343465 206.6171875 52.265625 C207.92042969 53.43158203 207.92042969 53.43158203 209.25 54.62109375 C223.65896245 68.20726029 236.17084192 88.11966082 236.92358398 108.41796875 C236.95677545 110.3461891 236.97773192 112.27464785 236.98828125 114.203125 C236.99730972 115.24146484 237.0063382 116.27980469 237.01564026 117.34960938 C237.03009341 119.54147485 237.03901716 121.73338298 237.04272461 123.92529297 C237.05455386 127.22830858 237.10373401 130.52941264 237.15429688 133.83203125 C237.35700475 160.21390129 228.3799951 181.40359022 209.8671875 200.515625 C197.60033774 212.68645629 180.40422842 221.22929896 162.92578125 221.4609375 C160.96865344 221.44784634 159.01156941 221.42429736 157.0546875 221.390625 C156.04599609 221.38160156 155.03730469 221.37257813 153.99804688 221.36328125 C151.53750293 221.33995856 149.07747854 221.30723263 146.6171875 221.265625 C146.63289795 222.26416504 146.6486084 223.26270508 146.66479492 224.29150391 C146.71931369 228.01505387 146.75361684 231.7385689 146.78198242 235.46240234 C146.79701926 237.07053572 146.81745422 238.67862844 146.84350586 240.28662109 C146.88011572 242.60524564 146.89696472 244.92332549 146.91015625 247.2421875 C146.92564011 247.95492828 146.94112396 248.66766907 146.95707703 249.40200806 C146.95890867 254.90075953 145.68933421 258.91137911 142.0390625 263.05859375 C141.48734375 263.51878906 140.935625 263.97898437 140.3671875 264.453125 C139.82578125 264.92105469 139.284375 265.38898438 138.7265625 265.87109375 C131.64994609 270.54952349 125.72615469 270.65453263 117.35983276 270.69067383 C98.38956696 270.79901617 79.47724302 272.03705287 60.5546875 273.265625 C59.51023909 273.33333666 59.51023909 273.33333666 58.4446907 273.40241623 C55.69205241 273.58094145 52.93942548 273.75963249 50.18686008 273.9392786 C45.64816337 274.23544711 41.10905788 274.5246964 36.56982422 274.8125 C32.30287677 275.08420521 28.04016734 275.38273647 23.77783203 275.71875 C22.10059356 275.83864836 20.42334811 275.95844919 18.74609375 276.078125 C17.6776548 276.17589233 17.6776548 276.17589233 16.58763123 276.27563477 C7.82633414 276.85824533 1.05624021 273.51202003 -5.49609375 268.01171875 C-9.14585227 264.63399192 -10.57463729 261.85319248 -11.1953125 256.953125 C-11.02320652 250.8116589 -7.82614673 246.7243468 -4.51855469 241.79492188 C6.56539451 225.04826637 11.91229553 206.23460192 11.6171875 186.265625 C11.03324219 187.06613281 11.03324219 187.06613281 10.4375 187.8828125 C-2.19417872 204.70564729 -19.09822487 217.95099496 -40.3828125 221.265625 C-63.010764 223.03078816 -83.35372225 219.46870193 -101.078125 204.359375 C-117.52883118 189.41432667 -126.38798158 172.42215549 -132.3828125 151.265625 C-139.54913967 162.15036233 -140.41005821 171.55723517 -140.13061523 184.36376953 C-140.06981987 187.28933083 -140.06909218 190.21060902 -140.07617188 193.13671875 C-140.06078176 195.01305271 -140.04202396 196.88936275 -140.01953125 198.765625 C-140.01821701 199.63131104 -140.01690277 200.49699707 -140.01554871 201.38891602 C-139.86735549 206.80862999 -138.96363732 209.95491591 -135.3828125 214.265625 C-133.36202989 216.05799966 -133.36202989 216.05799966 -131.1328125 217.390625 C-130.3490625 217.88820313 -129.5653125 218.38578125 -128.7578125 218.8984375 C-126.58656246 220.14833473 -124.40852967 221.22258796 -122.1328125 222.265625 C-116.88791784 224.79944091 -114.25588749 228.60979313 -111.5703125 233.703125 C-109.77537378 239.08794115 -109.65476312 243.13489666 -111.9453125 248.328125 C-116.23259361 256.0632196 -122.20021706 258.87337293 -130.3828125 261.265625 C-133.25203106 262.02889477 -136.13566834 262.70156171 -139.03271484 263.3503418 C-140.25176262 263.62897568 -140.25176262 263.62897568 -141.49543762 263.91323853 C-144.15209316 264.51881551 -146.81026134 265.11736917 -149.46875 265.71484375 C-151.33527101 266.13647403 -153.20177669 266.55817218 -155.06826782 266.97993469 C-158.96921721 267.85997664 -162.87105943 268.73593565 -166.7734375 269.60961914 C-171.75083925 270.72481083 -176.72467359 271.85512568 -181.6978054 272.98918438 C-185.54812119 273.86451273 -189.40077712 274.72917255 -193.25413895 275.59098244 C-195.08804416 276.00295822 -196.92109524 276.41875703 -198.75321579 276.83859825 C-223.97664808 282.60740022 -223.97664808 282.60740022 -232.59765625 277.59765625 C-237.53460442 273.91385028 -241.25212647 269.42158226 -242.3828125 263.265625 C-242.14369959 255.85312477 -240.12952981 249.94694428 -234.7578125 244.703125 C-232.88378215 243.27619834 -230.95268954 241.9826125 -228.984375 240.6875 C-218.29279133 233.55977755 -211.79156019 223.72414531 -208.3828125 211.265625 C-204.75523147 179.41193227 -226.66209835 148.1324755 -242.578125 121.98828125 C-245.10512548 117.81062626 -247.28557034 113.54543603 -249.3828125 109.140625 C-256.84815484 94.04143035 -267.76701084 85.94525127 -281.82421875 77.15234375 C-286.12763459 73.9789852 -288.83378382 70.38993706 -290.3828125 65.265625 C-291.01355217 59.81632764 -291.14515946 54.91229443 -288.8203125 49.890625 C-281.45552215 41.95931231 -276.36794279 39.61904181 -265.44867325 39.18954849 C-259.87188028 39.02399221 -254.2934691 38.95219158 -248.71484375 38.87890625 C-246.90744418 38.85320089 -245.10004571 38.82741728 -243.29264832 38.80155945 C-239.52138742 38.74885681 -235.75009803 38.69989487 -231.97875977 38.65307617 C-227.15699504 38.59251738 -222.33554463 38.5182665 -217.5140276 38.44070148 C-213.7882641 38.38301499 -210.06242114 38.3347662 -206.33649254 38.289114 C-204.55872501 38.26579517 -202.78099867 38.23906787 -201.00333595 38.20879555 C-198.51761661 38.16744528 -196.03207406 38.13938567 -193.54614258 38.11450195 C-192.45731781 38.09204659 -192.45731781 38.09204659 -191.34649658 38.06913757 C-186.60722547 38.03994882 -182.83107979 38.79185935 -178.3828125 40.265625 C-178.85332031 39.82992187 -179.32382813 39.39421875 -179.80859375 38.9453125 C-188.23243656 30.88772373 -188.23243656 30.88772373 -188.47265625 25.1015625 C-188.05404186 18.68280847 -185.82170137 14.70451387 -181.2578125 10.140625 C-171.88481685 4.02780175 -163.30209585 3.85330108 -152.4453125 4.390625 C-150.83658705 4.45530633 -149.22777649 4.51789781 -147.61889648 4.57861328 C-144.9514644 4.68056427 -142.28430003 4.78543642 -139.61732483 4.89877319 C-132.08540525 5.21720791 -124.5529376 5.43777322 -117.0169239 5.63432693 C-112.997789 5.7406972 -108.97890098 5.85601403 -104.96001339 5.97130394 C-101.6270923 6.06655081 -98.29422011 6.15691241 -94.96096802 6.24029541 C-91.18569393 6.33693479 -87.41135401 6.45157376 -83.63671875 6.5703125 C-81.93582092 6.60798737 -81.93582092 6.60798737 -80.20056152 6.64642334 C-72.47468318 6.91333441 -66.54738352 7.9259452 -60.5703125 13.203125 C-59.72533203 13.92822266 -59.72533203 13.92822266 -58.86328125 14.66796875 C-55.26504594 18.5510248 -55.15365887 21.80794353 -55.2578125 27.015625 C-55.27585938 28.18609375 -55.29390625 29.3565625 -55.3125 30.5625 C-55.33570313 31.45453125 -55.35890625 32.3465625 -55.3828125 33.265625 C-54.34125 33.27980469 -53.2996875 33.29398438 -52.2265625 33.30859375 C-33.64777328 33.8221218 -17.72993733 39.17304196 -3.671875 51.7265625 C-0.99940342 53.52341199 0.46183975 53.58896452 3.6171875 53.265625 C0.08649348 46.90794916 -2.82383818 42.17949774 -9.0390625 38.20703125 C-15.0458038 34.18936437 -19.47682003 28.92684976 -22.3828125 22.265625 C-22.92574679 17.46970547 -22.39447982 14.10019746 -19.7890625 9.96875 C-14.59077237 3.67304307 -8.09573378 0.01586732 0 0 Z M-12.3828125 13.265625 C-14.67413029 16.06427638 -14.67413029 16.06427638 -14.26171875 19.140625 C-12.07384631 26.91972699 -4.4699524 32.45917236 1.90234375 36.9765625 C9.75747159 42.8813283 12.44626606 52.17077988 14.6171875 61.265625 C-3.91160702 61.63057458 -3.91160702 61.63057458 -9.21875 58.69921875 C-10.55414684 57.35062629 -11.84715997 55.95892132 -13.09765625 54.53125 C-24.20010105 43.52369789 -40.96207099 41.03189914 -55.7722168 40.93554688 C-61.29285741 40.99722427 -66.08200807 41.71672871 -71.3828125 43.265625 C-70.88910156 42.65074219 -70.39539063 42.03585938 -69.88671875 41.40234375 C-69.24605469 40.59410156 -68.60539063 39.78585938 -67.9453125 38.953125 C-67.30722656 38.15261719 -66.66914063 37.35210937 -66.01171875 36.52734375 C-63.03736097 32.39748007 -62.86984114 28.20176447 -63.3828125 23.265625 C-65.01622301 19.03797427 -67.45795864 17.28153795 -71.38250732 15.11483765 C-74.72005687 13.69790921 -78.07754096 13.68189793 -81.640625 13.69140625 C-82.41679672 13.6775589 -83.19296844 13.66371155 -83.99266052 13.64944458 C-86.49781304 13.60817343 -89.00237827 13.59314226 -91.5078125 13.578125 C-93.25125222 13.55366548 -94.99466289 13.52704256 -96.73803711 13.49829102 C-99.31591369 13.45581822 -101.89372489 13.41438423 -104.47172546 13.38017273 C-110.30875457 13.3007773 -116.11896598 13.0670759 -121.9453125 12.703125 C-131.0112687 12.22216983 -140.08823537 12.02716944 -149.16549683 11.92459106 C-150.83419665 11.9021866 -152.50280621 11.87118639 -154.1711731 11.83102417 C-165.75079397 11.28928517 -165.75079397 11.28928517 -176.05932617 15.89208984 C-178.51102277 18.43649956 -179.36199299 20.09426438 -179.7890625 23.609375 C-179.28703256 28.12764447 -178.02762134 29.54503764 -174.8828125 32.765625 C-173.97144531 33.70921875 -173.06007813 34.6528125 -172.12109375 35.625 C-169.22026737 38.42237322 -166.22155526 41.04615741 -163.140625 43.640625 C-158.96429748 47.50140777 -155.70970527 52.00082311 -155.13134766 57.77709961 C-154.90335078 65.74842398 -156.49727705 71.60690966 -159.7578125 78.828125 C-160.2017334 79.85373535 -160.6456543 80.8793457 -161.10302734 81.93603516 C-164.84372917 90.42854591 -169.07461189 98.6312515 -173.546875 106.7578125 C-175.53738318 109.90108383 -175.53738318 109.90108383 -175.3828125 112.265625 C-176.0428125 112.265625 -176.7028125 112.265625 -177.3828125 112.265625 C-177.785 111.21375 -177.785 111.21375 -178.1953125 110.140625 C-179.4509574 107.1006426 -180.88516373 104.1928476 -182.3828125 101.265625 C-183.0428125 101.265625 -183.7028125 101.265625 -184.3828125 101.265625 C-186.85760339 85.11761444 -185.39326935 75.78131028 -176.3828125 62.265625 C-175.63506104 59.10300406 -175.69452489 56.43686935 -176.3828125 53.265625 C-179.02889383 49.71392956 -182.33739892 46.81630169 -186.66348267 45.65161133 C-189.18856668 45.44056227 -191.62029781 45.45129162 -194.15234375 45.546875 C-195.55997734 45.55729073 -195.55997734 45.55729073 -196.99604797 45.56791687 C-200.06407185 45.59929876 -203.1283264 45.68122591 -206.1953125 45.765625 C-208.32857002 45.80127417 -210.46187468 45.83419894 -212.59521484 45.86450195 C-216.99427693 45.93277391 -221.39219079 46.02260475 -225.79052734 46.12744141 C-231.14437184 46.24981218 -236.49569689 46.3048837 -241.85081482 46.32650757 C-245.79889134 46.34376196 -249.74656411 46.38257384 -253.69442749 46.42626953 C-255.55995461 46.44407712 -257.42556023 46.45505699 -259.29116821 46.45898438 C-261.88776689 46.46834792 -264.48201759 46.50934892 -267.078125 46.55859375 C-268.21402824 46.5527552 -268.21402824 46.5527552 -269.37287903 46.54679871 C-275.14666373 46.7068265 -277.4761827 48.30299797 -281.3828125 52.265625 C-283.87737167 56.00746375 -283.75887772 57.82805536 -283.3828125 62.265625 C-280.71382731 69.67947276 -274.44302424 73.31917877 -268.1328125 77.515625 C-256.08544274 85.69377915 -248.20662757 94.46255673 -241.3828125 107.265625 C-240.25039425 109.32528697 -239.11355898 111.38252567 -237.97265625 113.4375 C-237.38154053 114.50282959 -236.7904248 115.56815918 -236.18139648 116.66577148 C-235.56723877 117.77122314 -234.95308105 118.8766748 -234.3203125 120.015625 C-233.99910431 120.59434357 -233.67789612 121.17306213 -233.34695435 121.76931763 C-229.26644081 129.11992037 -225.15364327 136.45060005 -220.99487305 143.75732422 C-218.44061262 148.25064778 -215.90897704 152.75646441 -213.3828125 157.265625 C-212.44501953 158.92658203 -212.44501953 158.92658203 -211.48828125 160.62109375 C-203.67970302 175.22869789 -195.7279047 195.80145427 -199.9453125 212.49169922 C-205.13011328 229.09221965 -213.8904581 240.63712958 -228.46484375 249.96875 C-230.5500828 251.37872834 -232.08695406 252.49639305 -233.0078125 254.890625 C-234.0993385 261.148205 -234.0993385 261.148205 -232.40625 267.046875 C-230.08740653 269.94898584 -227.83136478 271.94441876 -224.3828125 273.265625 C-217.05282333 273.46040277 -209.86370668 271.59050165 -202.8203125 269.765625 C-188.29828855 266.13994946 -173.66653685 263.06327311 -159.02571106 259.96136475 C-156.47624919 259.41980435 -153.9278069 258.87362318 -151.37939453 258.32714844 C-148.02537708 257.60902169 -144.66718767 256.91795315 -141.30419922 256.24316406 C-139.69363778 255.90973269 -138.08312146 255.5760833 -136.47265625 255.2421875 C-135.74365616 255.10179047 -135.01465607 254.96139343 -134.26356506 254.81674194 C-128.6671811 253.63489586 -124.67042411 251.40072917 -120.5078125 247.515625 C-118.41563423 243.33126847 -119.05615562 239.0214057 -119.8828125 234.578125 C-122.68733825 230.25448113 -127.50137367 228.30475814 -131.921875 225.86328125 C-138.85706085 221.91378719 -144.10426655 217.69381725 -147.3828125 210.265625 C-147.71080017 208.1887207 -147.71080017 208.1887207 -147.81616211 205.94140625 C-147.85741211 205.0901416 -147.89866211 204.23887695 -147.94116211 203.36181641 C-147.97218018 202.44319824 -148.00319824 201.52458008 -148.03515625 200.578125 C-148.06818848 199.61567871 -148.1012207 198.65323242 -148.13525391 197.66162109 C-148.77288036 174.90803995 -148.01092453 157.70645864 -135.99023438 137.96679688 C-133.69998382 134.11817413 -131.88213555 130.1049566 -130.0703125 126.015625 C-129.17478867 124.0988137 -128.27911101 122.18207418 -127.3828125 120.265625 C-127.35888428 120.93803223 -127.33495605 121.61043945 -127.31030273 122.30322266 C-126.0804806 152.05633224 -118.47388369 176.82028122 -96.7265625 197.83203125 C-81.65225726 210.93337595 -64.91498751 215.33903207 -45.3828125 214.265625 C-28.39195167 212.61022313 -12.69193588 202.67457035 -1.3828125 190.265625 C1.96902567 186.1603015 4.81873503 181.76396389 7.6171875 177.265625 C8.09671875 176.53085938 8.57625 175.79609375 9.0703125 175.0390625 C12.89452848 168.77025276 15.04380645 161.78430414 17.3828125 154.86328125 C18.6171875 151.265625 18.6171875 151.265625 19.6171875 149.265625 C19.7196233 156.53885702 19.78908218 163.81189924 19.83691406 171.08569336 C19.85687969 173.55386303 19.88406187 176.02198633 19.91894531 178.48999023 C20.10543181 192.03494334 20.25751567 204.4191769 15.6171875 217.265625 C15.22821289 218.48822021 14.83923828 219.71081543 14.43847656 220.97045898 C11.08446748 231.48269394 5.80699051 240.66428026 -0.4453125 249.703125 C-2.23944764 252.54941397 -2.38608426 253.36214207 -2.5078125 256.953125 C-0.78607388 262.02268872 2.2579439 264.3594626 6.6171875 267.265625 C11.82693225 268.55430998 16.8691308 268.2717567 22.1796875 268.015625 C23.19651611 267.97115234 24.21334473 267.92667969 25.26098633 267.88085938 C32.39054512 267.54201269 39.50617534 267.07463562 46.625 266.5625 C49.39634204 266.36476528 52.16770342 266.16730677 54.93908691 265.97015381 C56.85347814 265.83351643 58.76778515 265.69569408 60.68200684 265.55670166 C71.87345117 264.75267396 83.02897818 264.16143406 94.25 264.0234375 C95.27682388 264.00951965 96.30364777 263.99560181 97.36158752 263.98126221 C102.30777877 263.92022087 107.25146997 263.8916505 112.19799805 263.90820312 C113.99007626 263.89515502 115.7821503 263.88151437 117.57421875 263.8671875 C118.37437408 263.88065216 119.17452942 263.89411682 119.99893188 263.9079895 C126.91261043 263.81589544 131.75928501 261.12352749 136.6171875 256.265625 C137.52599059 253.51948891 137.73982545 251.0192185 137.73071289 248.13964844 C137.73059959 246.93885651 137.73059959 246.93885651 137.73048401 245.71380615 C137.72532272 244.85950012 137.72016144 244.00519409 137.71484375 243.125 C137.7134288 242.24281799 137.71201385 241.36063599 137.71055603 240.45172119 C137.70496751 237.63965435 137.69241711 234.8276677 137.6796875 232.015625 C137.67467102 230.10677198 137.67010837 228.19791772 137.66601562 226.2890625 C137.65500184 221.61455253 137.63774508 216.94010235 137.6171875 212.265625 C138.21711517 212.4061026 138.81704285 212.5465802 139.43515015 212.6913147 C140.23176056 212.87390839 141.02837097 213.05650208 141.84912109 213.24462891 C142.63467377 213.42635651 143.42022644 213.60808411 144.22958374 213.7953186 C162.61364975 217.41658273 181.10944154 211.55727681 196.3984375 201.421875 C209.37429914 191.64992981 219.63354694 176.69216383 224.6171875 161.265625 C224.83004395 160.67233398 225.04290039 160.07904297 225.26220703 159.46777344 C232.59633532 138.68349604 233.08327657 111.87006982 224.6171875 91.265625 C223.40983765 89.1251255 222.11658297 87.08296106 220.75219727 85.03955078 C219.37526396 82.88751865 218.53170888 80.64499922 217.6171875 78.265625 C206.97135968 60.88703039 190.96158044 46.86922706 170.8671875 41.828125 C155.51154788 39.51707556 140.77680869 40.84672997 126.9296875 47.953125 C126.03878418 48.40655273 126.03878418 48.40655273 125.12988281 48.86914062 C122.27015572 50.43357031 120.00496131 51.8325297 117.81030273 54.28369141 C113.63303532 58.87863431 110.35100847 60.71189209 104.24223328 61.17655945 C100.17604606 61.32879337 96.12270097 61.31562692 92.0546875 61.265625 C90.36130696 61.27372807 88.66793958 61.28541557 86.97460938 61.30078125 C82.8544593 61.33043762 78.73716142 61.3114343 74.6171875 61.265625 C75.39037108 59.67505432 76.1687299 58.08699877 76.94921875 56.5 C77.38210205 55.61538086 77.81498535 54.73076172 78.26098633 53.81933594 C83.19766255 44.52363237 91.27902347 39.74689176 100.9921875 36.265625 C104.24357801 35.00289944 105.67857923 34.20569498 108.2421875 31.703125 C110.19016168 26.83318956 110.5472687 22.43624593 109.6171875 17.265625 C107.1831563 14.04217828 104.95514185 12.4909279 101.6171875 10.265625 C98.45348232 9.81816405 98.45348232 9.81816405 94.83911133 9.67407227 C94.17345311 9.63712281 93.5077949 9.60017336 92.82196522 9.56210423 C90.75408285 9.45153919 88.68604991 9.35585989 86.6171875 9.265625 C84.81790298 9.18681595 84.81790298 9.18681595 82.98226929 9.10641479 C79.34401592 8.96429135 75.70567226 8.84362958 72.06640625 8.73046875 C70.71523192 8.68716561 69.36406115 8.64375149 68.01289368 8.60023499 C65.19867186 8.51025857 62.38439607 8.4222918 59.57006836 8.33569336 C56.74606724 8.24859611 53.92219317 8.15843871 51.09838867 8.06518555 C42.90378442 7.79505707 34.70943312 7.55991261 26.51263428 7.36688232 C22.70595728 7.26793246 18.90168535 7.13285761 15.09619141 6.99658203 C12.77641628 6.93969343 10.45659269 6.88473644 8.13671875 6.83203125 C6.57868782 6.76193092 6.57868782 6.76193092 4.98918152 6.69041443 C-2.27825097 6.58296588 -6.95581297 8.35956244 -12.3828125 13.265625 Z M-174.3828125 44.265625 C-174.03347656 44.7503125 -173.68414062 45.235 -173.32421875 45.734375 C-169.94706039 50.70922584 -168.3828125 54.20885281 -168.3828125 60.265625 C-169.38777984 64.77916253 -171.44501831 68.47752356 -173.9453125 72.328125 C-178.27006275 79.01064571 -179.44348115 85.96228176 -177.8828125 93.765625 C-177.7178125 94.260625 -177.5528125 94.755625 -177.3828125 95.265625 C-176.7228125 95.265625 -176.0628125 95.265625 -175.3828125 95.265625 C-168.1188136 80.58229911 -168.1188136 80.58229911 -162.3828125 65.265625 C-162.0115625 64.255 -161.6403125 63.244375 -161.2578125 62.203125 C-161.51870538 56.07214234 -165.99844071 50.48542889 -170.1328125 46.140625 C-172.15074566 44.0522302 -172.15074566 44.0522302 -174.3828125 44.265625 Z " fill="#151D1D" transform="translate(290.3828125,59.734375)"/>
<path d="M0 0 C20.29156644 -0.14425613 40.5233216 0.20810802 60.80078125 0.92712402 C64.34231977 1.05155308 67.88405913 1.16999537 71.42578125 1.2890625 C78.28405201 1.52044957 85.14209483 1.7580238 92 2 C92.99 3.98 92.99 3.98 94 6 C93.39414063 6.4125 92.78828125 6.825 92.1640625 7.25 C61.6111481 28.30800869 47.01576295 56.40215929 32.16796875 89.52734375 C31.82929276 90.28265381 31.49061676 91.03796387 31.14167786 91.81616211 C29.37837588 95.75876005 27.63381275 99.70833469 25.91918945 103.67236328 C20.18837047 116.88438281 20.18837047 116.88438281 16.75 122.77734375 C7.32641562 139.56089527 8.96753968 158.23300125 9.453125 176.94140625 C9.47465637 177.86548279 9.49618774 178.78955933 9.51837158 179.74163818 C9.86923444 189.35697778 13.10183418 197.45041571 19.52734375 204.73046875 C24.67088245 209.42127544 30.94731082 212.64070781 37 216 C36.67 217.65 36.34 219.3 36 221 C18.82299794 225.30326393 1.55119819 229.06811223 -15.77172852 232.72973633 C-25.97107216 234.89056707 -36.15080665 237.08729913 -46.22949219 239.76782227 C-50.15627036 240.76988575 -53.08552895 241.21510103 -57 240 C-56.87890625 237.76171875 -56.87890625 237.76171875 -56 235 C-53.33984375 232.89453125 -53.33984375 232.89453125 -49.9375 230.8125 C-36.82639206 222.3129346 -28.41622076 207.81655976 -24.41796875 192.81640625 C-22.27647237 178.38632316 -23.99806471 164.60130586 -29 151 C-29.2357373 150.35853027 -29.47147461 149.71706055 -29.71435547 149.05615234 C-34.77766409 135.76367818 -42.09424334 123.39187668 -49 111 C-49.53963379 110.03078613 -50.07926758 109.06157227 -50.63525391 108.06298828 C-53.82605176 102.34715455 -57.0535048 96.65328972 -60.30566406 90.97216797 C-62.10046846 87.82376037 -63.87422534 84.66395749 -65.6484375 81.50390625 C-66.86899446 79.35631755 -68.09032858 77.20917033 -69.3125 75.0625 C-69.86284912 74.07378906 -70.41319824 73.08507812 -70.98022461 72.06640625 C-76.25855751 62.87489457 -82.9108401 56.40879352 -91.5 50.3125 C-92.14783447 49.84481201 -92.79566895 49.37712402 -93.46313477 48.89526367 C-97.86624211 45.73993345 -102.33655113 42.76000035 -107 40 C-106.125 35.125 -106.125 35.125 -105 34 C-102.38311559 33.90490441 -99.792711 33.87444 -97.17553711 33.88647461 C-96.35609116 33.88632858 -95.5366452 33.88618256 -94.69236755 33.8860321 C-91.97066647 33.88673148 -89.24903295 33.89452499 -86.52734375 33.90234375 C-84.64547259 33.90420784 -82.76360094 33.90563179 -80.88172913 33.90663147 C-75.91851471 33.91045733 -70.95532936 33.92028819 -65.99212646 33.93133545 C-60.93160394 33.9415481 -55.87107673 33.94612878 -50.81054688 33.95117188 C-40.87368512 33.9619104 -30.93684497 33.97898764 -21 34 C-19.86132812 37.72167969 -19.86132812 37.72167969 -21.109375 40.2265625 C-21.65078125 41.01804688 -22.1921875 41.80953125 -22.75 42.625 C-28.9643174 52.53900404 -30.63245728 62.82294287 -28.56640625 74.4375 C-25.54360983 84.65117239 -19.48424658 93.97776749 -12.6015625 101.9765625 C-11 104 -11 104 -10 107 C-9.01 107 -8.02 107 -7 107 C-6.90485107 106.47325684 -6.80970215 105.94651367 -6.71166992 105.40380859 C-5.75882649 102.18538786 -4.22335286 99.48441133 -2.61328125 96.5390625 C-1.91464757 95.24873363 -1.21608224 93.95836776 -0.51757812 92.66796875 C0.57510511 90.66216826 1.66973522 88.65745822 2.76635742 86.65380859 C9.07607621 75.10210298 14.56590198 63.41547445 19 51 C19.34804687 50.06800781 19.69609375 49.13601562 20.0546875 48.17578125 C22.34998742 40.46471169 22.00642437 32.1872063 18.2421875 25.03515625 C17.83226562 24.36355469 17.42234375 23.69195312 17 23 C16.41605469 22.03900391 16.41605469 22.03900391 15.8203125 21.05859375 C11.28433046 14.41566147 4.99750348 9.27935581 -1 4 C-0.67 2.68 -0.34 1.36 0 0 Z " fill="#000303" transform="translate(124,82)"/>
<path d="M0 0 C12.86030782 1.25347503 23.9869276 2.34257301 34.33203125 10.9375 C36 13 36 13 36.171875 14.9453125 C36.03265625 15.66460937 35.8934375 16.38390625 35.75 17.125 C33.47748129 33.10291508 33.96470153 51.85636518 39.4140625 67.15234375 C40 69 40 69 40 72 C40.66 72 41.32 72 42 72 C42.33 73.98 42.66 75.96 43 78 C43.66 78 44.32 78 45 78 C46.3671875 80.01171875 46.3671875 80.01171875 47.875 82.6875 C49.59742069 85.69221423 51.15967752 88.18424329 53.4375 90.8125 C55 93 55 93 54.7890625 95.3359375 C52.35996654 103.53714267 44.57890631 112.66676741 37.25778198 117.04092407 C30.4878226 120.45866881 24.41051994 120.47423372 16.9375 120.25 C15.78572266 120.23195313 14.63394531 120.21390625 13.44726562 120.1953125 C10.63062166 120.14856322 7.81576771 120.08305157 5 120 C4.49389886 110.76619514 3.98953108 101.53229752 3.48720646 92.29828644 C3.25375192 88.00773235 3.01976284 83.71720898 2.78442383 79.42675781 C-0.21318122 24.75357566 -0.21318122 24.75357566 -0.0625 9.5 C-0.05798828 8.55898437 -0.05347656 7.61796875 -0.04882812 6.6484375 C-0.0375211 4.43226074 -0.01963097 2.21611865 0 0 Z M21 69 C21.11811006 73.80567423 21.24234823 78.61113568 21.37231445 83.41650391 C21.41567538 85.05187653 21.45734961 86.68729477 21.49731445 88.32275391 C21.55498912 90.67103841 21.61869129 93.01909304 21.68359375 95.3671875 C21.70030624 96.10057343 21.71701874 96.83395935 21.73423767 97.58956909 C21.78637962 101.42202308 21.78637962 101.42202308 23 105 C27.37653129 104.52379711 29.06538005 103.33100111 31.8125 99.9375 C32.41707031 99.20402344 33.02164063 98.47054687 33.64453125 97.71484375 C34.09183594 97.14894531 34.53914063 96.58304688 35 96 C34.48050781 95.14019531 33.96101563 94.28039062 33.42578125 93.39453125 C28.72768698 85.47945977 25.01503715 77.72621328 22 69 C21.67 69 21.34 69 21 69 Z " fill="#00EFEF" transform="translate(349,152)"/>
<path d="M0 0 C3.43884678 -0.05640361 5.93138308 0.12874326 9.125 1.4375 C10.11886719 1.83775391 10.11886719 1.83775391 11.1328125 2.24609375 C11.74898438 2.49488281 12.36515625 2.74367187 13 3 C13.99 3.33 14.98 3.66 16 4 C15.97381592 5.1331665 15.94763184 6.26633301 15.9206543 7.43383789 C15.82891449 11.71097402 15.77230976 15.98802687 15.7253418 20.26586914 C15.70047529 22.10358387 15.6665691 23.94120268 15.62280273 25.77856445 C15.36885482 36.72820081 15.86990944 45.90887276 19.91723633 56.16186523 C21 59 21 59 21 62 C21.66 62 22.32 62 23 62 C23.54269531 63.10859375 24.08539063 64.2171875 24.64453125 65.359375 C25.36697274 66.82302269 26.08964092 68.2865585 26.8125 69.75 C27.16892578 70.47960937 27.52535156 71.20921875 27.89257812 71.9609375 C29.68812584 75.58497877 31.51746284 78.79179813 34 82 C34.5 84.5 34.5 84.5 34 87 C31.8125 88.9375 31.8125 88.9375 29 91 C28.175 92.010625 27.35 93.02125 26.5 94.0625 C23.99256573 97.00873527 22.4657807 98.37466836 19 100 C16.30408429 100.20952713 13.86549491 100.28744431 11.1875 100.1875 C10.14819336 100.16719727 10.14819336 100.16719727 9.08789062 100.14648438 C7.39158735 100.11138845 5.69568864 100.05758943 4 100 C2.98139341 90.35290552 2.66941429 80.72342226 2.39453125 71.03125 C2.35714844 69.84015625 2.31976563 68.6490625 2.28125 67.421875 C2.25095703 66.35549805 2.22066406 65.28912109 2.18945312 64.19042969 C2.05270082 61.00031251 2.05270082 61.00031251 1.50219727 57.87963867 C0.79596464 52.42375991 0.76381508 47.00026393 0.68359375 41.50390625 C0.66281265 40.31522446 0.64203156 39.12654266 0.62062073 37.90184021 C0.55548013 34.12211632 0.49640575 30.34232569 0.4375 26.5625 C0.39428101 23.99283177 0.35066566 21.42317017 0.30664062 18.85351562 C0.19983527 12.56908001 0.09800429 6.2845787 0 0 Z M11 57 C11.11811006 61.80567423 11.24234823 66.61113568 11.37231445 71.41650391 C11.41567538 73.05187653 11.45734961 74.68729477 11.49731445 76.32275391 C11.55498912 78.67103841 11.61869129 81.01909304 11.68359375 83.3671875 C11.70030624 84.10057343 11.71701874 84.83395935 11.73423767 85.58956909 C11.78637962 89.42202308 11.78637962 89.42202308 13 93 C17.37653129 92.52379711 19.06538005 91.33100111 21.8125 87.9375 C22.41707031 87.20402344 23.02164062 86.47054687 23.64453125 85.71484375 C24.09183594 85.14894531 24.53914063 84.58304688 25 84 C24.48050781 83.14019531 23.96101563 82.28039062 23.42578125 81.39453125 C18.72768698 73.47945977 15.01503715 65.72621328 12 57 C11.67 57 11.34 57 11 57 Z " fill="#061010" transform="translate(359,164)"/>
<path d="M0 0 C0.36776728 3.25244184 0.28749529 4.61001797 -1.6875 7.2890625 C-2.450625 8.05992187 -3.21375 8.83078125 -4 9.625 C-14.07304322 20.38948457 -19.96469289 31.54304036 -25.98193359 44.90625 C-27 47 -27 47 -29 50 C-30.859375 49.703125 -30.859375 49.703125 -33 49 C-38.11945189 41.60523616 -38.00534479 33.9074392 -36.52734375 25.22265625 C-34.37866031 16.87238346 -29.31784739 10.71614764 -23 5 C-22.44957031 4.45988281 -21.89914063 3.91976562 -21.33203125 3.36328125 C-15.09821434 -2.15075474 -7.81916387 -2.60638796 0 0 Z " fill="#F5F5F5" transform="translate(235,127)"/>
<path d="M0 0 C0.95003906 -0.00515625 1.90007812 -0.0103125 2.87890625 -0.015625 C5.4375 0.25 5.4375 0.25 8.4375 2.25 C7.93879662 6.67599251 6.53322063 8.61128325 3.4375 11.75 C-6.00836292 21.88665735 -12.6289129 33.03751726 -17.59765625 45.9375 C-18.5625 48.25 -18.5625 48.25 -20.5625 51.25 C-23.42974686 50.67655063 -24.4239515 50.3885485 -26.5625 48.25 C-30.23633464 39.22174678 -29.73614348 28.80019671 -26.02734375 19.8515625 C-20.8302786 10.62157479 -11.21313155 -0.06102385 0 0 Z " fill="#F4F4F4" transform="translate(431.5625,123.75)"/>
<path d="M0 0 C15.51 0 31.02 0 47 0 C45 5 45 5 43 8.3125 C40.7766255 12.07896278 39.89801703 15.7344191 39 20 C37.1328125 20.60546875 37.1328125 20.60546875 35 21 C33.32854798 19.67267046 31.66313351 18.33773782 30 17 C20.44802414 12.24955211 10.50902021 10.90077316 0 10 C0 6.7 0 3.4 0 0 Z " fill="#00F5F5" transform="translate(350,136)"/>
<path d="M0 0 C10.56 0 21.12 0 32 0 C32 3.96 32 7.92 32 12 C31.05898438 12.24234375 30.11796875 12.4846875 29.1484375 12.734375 C27.90320313 13.06953125 26.65796875 13.4046875 25.375 13.75 C24.14523437 14.07484375 22.91546875 14.3996875 21.6484375 14.734375 C17.91264284 15.85616315 17.91264284 15.85616315 14.7265625 18.203125 C13.82679688 18.79609375 12.92703125 19.3890625 12 20 C11.01 19.67 10.02 19.34 9 19 C7.9677526 16.34564953 6.97618706 13.67547565 6 11 C4.02 7.37 2.04 3.74 0 0 Z " fill="#00F4F4" transform="translate(288,136)"/>
<path d="M0 0 C0.66 0.33 1.32 0.66 2 1 C2.54204337 3.36176039 2.98326099 5.67562508 3.375 8.0625 C4.44646424 13.98903656 6.01840396 18.79133427 9 24 C9.6496875 25.60875 9.6496875 25.60875 10.3125 27.25 C14.48285005 36.98081677 20.17594874 44.74727344 27.44921875 52.30859375 C29.78870341 54.77705459 31.91799987 57.31339094 34 60 C19.74111834 53.96865695 10.70530794 35.59836554 5 22 C3.0688547 16.7416195 1.52674455 11.38807816 0 6 C-7.16632717 16.88473733 -8.02724571 26.29161017 -7.74780273 39.09814453 C-7.68700737 42.02370583 -7.68627968 44.94498402 -7.69335938 47.87109375 C-7.67796926 49.74742771 -7.65921146 51.62373775 -7.63671875 53.5 C-7.63540451 54.36568604 -7.63409027 55.23137207 -7.63273621 56.12329102 C-7.48450357 61.54444672 -6.57548376 64.6839073 -3 69 C-1.16007416 70.68644582 -1.16007416 70.68644582 0.75 71.875 C2.35875 72.926875 2.35875 72.926875 4 74 C3.01 74.495 3.01 74.495 2 75 C0.74088007 74.13817519 -0.50685872 73.25971733 -1.75 72.375 C-2.44609375 71.88773437 -3.1421875 71.40046875 -3.859375 70.8984375 C-7.80655143 67.39783942 -10.1608657 63.9713487 -10.59692383 58.6730957 C-10.65682369 57.00799699 -10.69215712 55.34189063 -10.70703125 53.67578125 C-10.73055916 52.32446358 -10.73055916 52.32446358 -10.75456238 50.94584656 C-10.77914278 49.03716646 -10.79276297 47.12831779 -10.79614258 45.21948242 C-10.81221047 42.36395422 -10.89740976 39.51616584 -10.98632812 36.66210938 C-11.18462986 23.05754753 -8.16058154 12.6168614 -1 1 C-0.67 0.67 -0.34 0.34 0 0 Z " fill="#CACACA" transform="translate(158,205)"/>
<path d="M0 0 C0.33 0 0.66 0 1 0 C2.36418962 22.79712434 -6.32962726 42.40608394 -21.36376953 59.55566406 C-31.34183743 70.6271719 -43.40305684 79.10606327 -58 83 C-58.99 82.67 -59.98 82.34 -61 82 C-60.04480469 81.64808594 -59.08960938 81.29617188 -58.10546875 80.93359375 C-34.54406079 72.03533734 -19.15081741 56.71237808 -8.59887695 34.12475586 C-4.90003739 25.89416612 -2.58063451 17.86987912 -1.3125 8.9375 C-1.18294922 8.07189453 -1.05339844 7.20628906 -0.91992188 6.31445312 C-0.60610144 4.21069392 -0.30200786 2.10548743 0 0 Z " fill="#CBCBCB" transform="translate(526,196)"/>
<path d="M0 0 C5.31635831 2.33597562 8.47718941 6.48405206 11.4375 11.375 C13.22449387 19.71430474 9.96566818 25.21492719 5.65625 32.2265625 C1.45927946 39.25450845 1.76528582 46.05883681 2 54 C2.66 54 3.32 54 4 54 C4.35578125 52.83404297 4.35578125 52.83404297 4.71875 51.64453125 C6.72240923 45.94509814 9.25021826 40.47255675 11.72265625 34.96289062 C16.34929793 25.31485177 16.34929793 25.31485177 16.0234375 15.109375 C15.47945312 14.33078125 14.93546875 13.5521875 14.375 12.75 C13.81296875 11.92242187 13.2509375 11.09484375 12.671875 10.2421875 C9.9241925 6.55084653 9.9241925 6.55084653 7 3 C12.23317747 5.19493095 15.06789764 9.28114777 18 14 C21.58870018 25.33273741 14.13419686 37.37060162 9 47.2734375 C7.08081735 50.89665633 5.05384779 54.45161119 3 58 C1 57 1 57 0 54 C-0.67630689 44.03278866 -0.5539902 36.38590693 5.37890625 28.06640625 C8.8627932 22.97457148 10.03695316 19.17563215 9 13 C7.12725877 7.79794103 3.68128613 4.02677901 0 0 Z " fill="#D0D0D0" transform="translate(111,101)"/>
<path d="M0 0 C0.66 0 1.32 0 2 0 C2.20753906 1.19753906 2.41507812 2.39507812 2.62890625 3.62890625 C5.02085631 16.57161313 8.70681149 27.63598315 16 38.6875 C18 42 18 42 17.625 44.20703125 C17.41875 44.79871094 17.2125 45.39039063 17 46 C16.75121094 45.47921875 16.50242187 44.9584375 16.24609375 44.421875 C14.32505111 40.68818711 12.15970306 37.09020699 10.00976562 33.484375 C7.40108856 29.0039353 5.87385514 24.99694703 4 20 C4.33 30.89 4.66 41.78 5 53 C4.01 53 3.02 53 2 53 C1.71035354 47.70239712 1.42576038 42.40455346 1.14550781 37.10644531 C1.04983405 35.31047545 0.95286637 33.51457397 0.85449219 31.71875 C0.27555249 21.13242419 -0.15891954 10.60567227 0 0 Z " fill="#D4D4D4" transform="translate(367,204)"/>
<path d="M0 0 C0.66 0 1.32 0 2 0 C2.55031766 14.26592698 3.00095604 26.7918656 -3 40 C-3.56076943 41.30691717 -4.12063688 42.61422166 -4.6796875 43.921875 C-7.81634881 51.07557146 -11.47565791 57.62419803 -16 64 C-18.8277136 68.07085705 -20.76036046 71.73709833 -20.5390625 76.8671875 C-19.45666215 81.14972802 -16.67566517 84.55985906 -14 88 C-18.21057481 86.08931899 -19.89350996 84.21298009 -22 80 C-23.21324425 75.85606185 -23.11738041 72.19776561 -21.12988281 68.28857422 C-19.54841087 65.64452869 -17.85199129 63.08724234 -16.13598633 60.52905273 C-5.05030991 43.78467692 0.29508413 24.96735954 0 5 C-0.38929688 5.53367188 -0.77859375 6.06734375 -1.1796875 6.6171875 C-5.94579191 12.96467218 -11.29007532 18.4968734 -17 24 C-17.66 23.67 -18.32 23.34 -19 23 C-18.21496094 22.26136719 -17.42992187 21.52273438 -16.62109375 20.76171875 C-10.54563958 14.93191332 -5.50162797 9.37600149 -1.3046875 1.984375 C-0.87414062 1.32953125 -0.44359375 0.6746875 0 0 Z " fill="#DADADA" transform="translate(302,241)"/>
<path d="M0 0 C10.25045926 1.50288688 20.41896218 8.17168934 28 15 C29.30710937 16.16789062 29.30710937 16.16789062 30.640625 17.359375 C44.42009179 30.36903918 56.9169552 49.53771899 58.1953125 68.96875 C58.17210937 69.8040625 58.14890625 70.639375 58.125 71.5 C58.10695313 72.3559375 58.08890625 73.211875 58.0703125 74.09375 C58.04710937 74.7228125 58.02390625 75.351875 58 76 C56.30065751 72.97894669 55.65087392 70.42183821 55.1875 67 C54.0649692 60.5133144 51.76963951 54.94699245 49 49 C48.71350586 48.36868164 48.42701172 47.73736328 48.13183594 47.08691406 C38.16235756 25.25555366 22.38926736 10.10749859 0 1 C0 0.67 0 0.34 0 0 Z " fill="#D7D7D7" transform="translate(469,97)"/>
<path d="M0 0 C1.65 0 3.3 0 5 0 C4.01 0.33 3.02 0.66 2 1 C2.05534912 1.90274658 2.11069824 2.80549316 2.16772461 3.7355957 C3.54208247 26.81651295 4.27244261 49.88336873 4.625 73 C4.63524578 73.67127048 4.64549156 74.34254097 4.65604782 75.03415298 C4.78202448 83.35595649 4.89651486 91.67788749 5 100 C4.67 100 4.34 100 4 100 C2.98139341 90.35290552 2.66941429 80.72342226 2.39453125 71.03125 C2.35714844 69.84015625 2.31976563 68.6490625 2.28125 67.421875 C2.25095703 66.35549805 2.22066406 65.28912109 2.18945312 64.19042969 C2.05270082 61.00031251 2.05270082 61.00031251 1.50219727 57.87963867 C0.79596464 52.42375991 0.76381508 47.00026393 0.68359375 41.50390625 C0.66281265 40.31522446 0.64203156 39.12654266 0.62062073 37.90184021 C0.55548013 34.12211632 0.49640575 30.34232569 0.4375 26.5625 C0.39428101 23.99283177 0.35066566 21.42317017 0.30664062 18.85351562 C0.19983527 12.56908001 0.09800429 6.2845787 0 0 Z " fill="#005F5F" transform="translate(359,164)"/>
<path d="M0 0 C7.92 0 15.84 0 24 0 C24 0.33 24 0.66 24 1 C16.74 1 9.48 1 2 1 C2.05220703 4.57714844 2.05220703 4.57714844 2.10546875 8.2265625 C2.12890086 10.54995528 2.14709655 12.87333463 2.16479492 15.19677734 C2.17983176 16.80491072 2.20026672 18.41300344 2.22631836 20.02099609 C2.26292822 22.33962064 2.27977722 24.65770049 2.29296875 26.9765625 C2.30845261 27.68930328 2.32393646 28.40204407 2.33988953 29.13638306 C2.34172117 34.63513453 1.07214671 38.64575411 -2.578125 42.79296875 C-3.12984375 43.25316406 -3.6815625 43.71335937 -4.25 44.1875 C-4.79140625 44.65542969 -5.3328125 45.12335938 -5.890625 45.60546875 C-11.48398072 49.30329837 -15.99757424 50.3735232 -22.68359375 50.29296875 C-23.38396255 50.28872391 -24.08433136 50.28447906 -24.80592346 50.28010559 C-27.01686 50.26347156 -29.22684457 50.2258518 -31.4375 50.1875 C-32.94725235 50.17243326 -34.45701916 50.15874836 -35.96679688 50.14648438 C-39.64483434 50.11361921 -43.32232407 50.06194582 -47 50 C-47 49.67 -47 49.34 -47 49 C-46.11328613 48.99589111 -45.22657227 48.99178223 -44.31298828 48.98754883 C-40.9761101 48.9603401 -37.64099663 48.91102179 -34.3046875 48.84741211 C-32.86957875 48.82442594 -31.43430595 48.80988253 -29.99902344 48.80444336 C-21.33314059 48.76516286 -13.05212366 48.72308624 -6 43 C0.90246211 35.97658236 -0.2187981 25.59456435 -0.1875 16.4375 C-0.16432162 14.84046115 -0.13894941 13.24345256 -0.11132812 11.64648438 C-0.04483409 7.76363577 -0.02343785 3.88429147 0 0 Z " fill="#C9C9C9" transform="translate(435,280)"/>
<path d="M0 0 C5.08227206 0.24791571 7.85155233 1.9027836 11.453125 5.28125 C16.28690413 10.6521157 16.49429543 16.17300255 16.27734375 23.1328125 C15.74830531 28.6020268 14.06432641 32.25982132 10.0625 36.125 C6.08761633 39.31503403 1.60686794 40.88026576 -3.109375 42.69921875 C-7.15900123 44.52155055 -9.83949758 46.91132718 -13 50 C-10.12340174 50.1356886 -7.25326537 50.23440753 -4.375 50.3125 C-3.16263672 50.3753418 -3.16263672 50.3753418 -1.92578125 50.43945312 C2.44758213 50.52834262 5.15028528 50.34351227 8.5859375 47.48046875 C9.38257813 46.66191406 10.17921875 45.84335938 11 45 C11.66 45.33 12.32 45.66 13 46 C10.19757698 49.22475575 7.65516215 51.6895997 3.35986328 52.49511719 C0.4077679 52.58899473 -2.48786268 52.52468882 -5.4375 52.375 C-6.96407227 52.33439453 -6.96407227 52.33439453 -8.52148438 52.29296875 C-11.01655513 52.22268507 -13.50713847 52.12437201 -16 52 C-12.11899007 43.46910081 -4.43489442 40.647836 3.79296875 37.4921875 C7.03250778 35.98487458 8.83530511 34.8208196 11 32 C12.40216302 27.71058734 12.28927536 23.04745742 12.375 18.5625 C12.41238281 17.82451172 12.44976562 17.08652344 12.48828125 16.32617188 C12.55232511 12.32343058 12.24710387 9.77284328 9.71484375 6.58203125 C7.46091525 4.43836687 6.0573202 3.13787772 3.1875 2.125 C2.135625 1.75375 1.08375 1.3825 0 1 C0 0.67 0 0.34 0 0 Z " fill="#C2C2C2" transform="translate(392,63)"/>
<path d="M0 0 C3 1 3 1 3.93505859 2.86328125 C4.21172363 3.67152344 4.48838867 4.47976562 4.7734375 5.3125 C7.11972681 11.57520208 10.30498287 17.20829961 13.625 23 C14.87400367 25.20295167 16.12269932 27.40607801 17.37109375 29.609375 C17.98452637 30.68767578 18.59795898 31.76597656 19.22998047 32.87695312 C22.15598492 38.03963574 25.02259093 43.23492735 27.89111328 48.4296875 C29.43600438 51.21924249 30.98738036 53.97951165 32.66015625 56.6953125 C33.98499457 58.97418892 34.90990403 61.13042932 35.75 63.625 C36.01296875 64.38039063 36.2759375 65.13578125 36.546875 65.9140625 C37 68 37 68 36 71 C35.57255493 70.07610474 35.57255493 70.07610474 35.13647461 69.13354492 C29.19937919 56.3702579 22.99152581 43.8477551 16.125 31.5625 C15.5074585 30.45737061 14.88991699 29.35224121 14.25366211 28.21362305 C11.02697986 22.48644719 7.72271031 16.82512563 4.24511719 11.24633789 C2.27015256 7.68326935 1.07808956 3.91516736 0 0 Z " fill="#D3D3D3" transform="translate(42,168)"/>
<path d="M0 0 C0.33 0 0.66 0 1 0 C1.87178271 14.56845765 -0.35433154 29.70083938 -9 42 C-10.485 42.495 -10.485 42.495 -12 43 C-10.64938359 38.69612189 -8.96884743 34.70933724 -7.0625 30.625 C-2.68637248 20.83940051 -1.48299703 10.54424496 0 0 Z " fill="#C3C3C3" transform="translate(526,196)"/>
<path d="M0 0 C5.56450647 0.13911266 8.30281329 2.57286226 12.265625 6.11328125 C17.41596308 11.71601389 16.14568493 17.71575357 16 25 C21.61 25.33 27.22 25.66 33 26 C33 26.33 33 26.66 33 27 C26.4 27 19.8 27 13 27 C12.979375 24.15375 12.95875 21.3075 12.9375 18.375 C12.77587558 12.1873241 12.77587558 12.1873241 10.55078125 6.5390625 C8.75645946 5.00552067 7.14784922 3.96766259 5 3 C4.030625 2.54625 3.06125 2.0925 2.0625 1.625 C1.0415625 1.315625 1.0415625 1.315625 0 1 C0 0.67 0 0.34 0 0 Z " fill="#989898" transform="translate(219,68)"/>
<path d="M0 0 C3.34963078 2.68970352 4.56908526 6.29500823 6.0625 10.1875 C6.32562988 10.86514404 6.58875977 11.54278809 6.85986328 12.2409668 C9.97975992 20.40348709 11.32283482 27.24758938 11 36 C9.30065751 32.97894669 8.65087392 30.42183821 8.1875 27 C6.98237099 19.81743109 4.24299704 13.24948758 0.8515625 6.82421875 C-0.24575681 4.47353931 -0.14227721 2.5609897 0 0 Z " fill="#D8D8D8" transform="translate(516,137)"/>
<path d="M0 0 C0.33 0 0.66 0 1 0 C1.5 2.5625 1.5 2.5625 1 6 C-3.01788849 10.84600291 -8.02323653 14.06470494 -14 16 C-17.73217773 16.34057617 -17.73217773 16.34057617 -21.68359375 16.29296875 C-22.38396255 16.28872391 -23.08433136 16.28447906 -23.80592346 16.28010559 C-26.01686 16.26347156 -28.22684457 16.2258518 -30.4375 16.1875 C-31.94725235 16.17243326 -33.45701916 16.15874836 -34.96679688 16.14648438 C-38.64483434 16.11361921 -42.32232407 16.06194582 -46 16 C-46 15.67 -46 15.34 -46 15 C-45.11328613 14.99589111 -44.22657227 14.99178223 -43.31298828 14.98754883 C-39.9761101 14.9603401 -36.64099663 14.91102179 -33.3046875 14.84741211 C-31.86957875 14.82442594 -30.43430595 14.80988253 -28.99902344 14.80444336 C-20.2189354 14.76464519 -12.3318337 14.47144587 -5 9 C-2.87136331 6.7027731 -2.87136331 6.7027731 -1.875 4.1875 C-1.50117188 3.39730469 -1.12734375 2.60710937 -0.7421875 1.79296875 C-0.49726563 1.20128906 -0.25234375 0.60960937 0 0 Z " fill="#B1B1B1" transform="translate(434,314)"/>
<path d="M0 0 C0.33 0 0.66 0 1 0 C1 17.82 1 35.64 1 54 C0.67 54 0.34 54 0 54 C-0.33 38.82 -0.66 23.64 -1 8 C-1.99 8.495 -1.99 8.495 -3 9 C-2.5020163 5.26512223 -2.12508244 3.18762365 0 0 Z " fill="#003F3F" transform="translate(310,208)"/>
<path d="M0 0 C0.99 0.33 1.98 0.66 3 1 C2.67 18.49 2.34 35.98 2 54 C1.67 54 1.34 54 1 54 C0.67 36.18 0.34 18.36 0 0 Z " fill="#00A6A7" transform="translate(417,257)"/>
<path d="M0 0 C1.5644779 3.05188793 2.98973068 6.15990777 4.41210938 9.2800293 C6.69638317 14.27780729 8.91649768 19.11838872 12 23.6875 C14 27 14 27 13.625 29.20703125 C13.315625 30.09455078 13.315625 30.09455078 13 31 C12.75121094 30.47921875 12.50242187 29.9584375 12.24609375 29.421875 C10.95892018 26.92015834 9.55559464 24.50128946 8.13085938 22.07592773 C-0.66093032 7.04992337 -0.66093032 7.04992337 0 0 Z " fill="#BEBEBE" transform="translate(371,219)"/>
<path d="M0 0 C0.66 0 1.32 0 2 0 C2.36463732 1.74784829 2.7163078 3.49840502 3.0625 5.25 C3.25972656 6.22453125 3.45695312 7.1990625 3.66015625 8.203125 C3.9987016 10.98931436 3.68520407 12.34576184 3 15 C2.85966422 16.439735 2.75583143 17.88337149 2.68359375 19.328125 C2.64169922 20.12734375 2.59980469 20.9265625 2.55664062 21.75 C2.51732422 22.575 2.47800781 23.4 2.4375 24.25 C2.39431641 25.09046875 2.35113281 25.9309375 2.30664062 26.796875 C2.20091457 28.86440671 2.09998705 30.93218281 2 33 C1.67 33 1.34 33 1 33 C0.34235269 21.98440762 -0.16207546 11.03913945 0 0 Z " fill="#808080" transform="translate(367,204)"/>
<path d="M0 0 C0.66 0 1.32 0 2 0 C2 4 2 4 -0.0625 6.25 C-0.52011719 6.67023438 -0.97773438 7.09046875 -1.44921875 7.5234375 C-3.22189108 9.21127161 -4.78427362 11.01496328 -6.375 12.875 C-9.74301779 16.76857661 -13.31082102 20.41174081 -17 24 C-17.66 23.67 -18.32 23.34 -19 23 C-18.21496094 22.26136719 -17.42992187 21.52273438 -16.62109375 20.76171875 C-10.54563958 14.93191332 -5.50162797 9.37600149 -1.3046875 1.984375 C-0.87414062 1.32953125 -0.44359375 0.6746875 0 0 Z " fill="#C7C7C7" transform="translate(302,241)"/>
<path d="M0 0 C0.33 0 0.66 0 1 0 C1.322092 9.50767881 1.23806859 17.90256921 -2 27 C-2.33 27 -2.66 27 -3 27 C-3.17159443 20.82260045 -2.53731344 15.08370312 -1.5 9 C-1.35691406 8.12988281 -1.21382812 7.25976562 -1.06640625 6.36328125 C-0.71661973 4.24124305 -0.3591135 2.12047972 0 0 Z " fill="#BDBDBD" transform="translate(526,196)"/>
<path d="M0 0 C0.99 0 1.98 0 3 0 C3 6.6 3 13.2 3 20 C2.34 20 1.68 20 1 20 C0.67 13.4 0.34 6.8 0 0 Z " fill="#3D3D3D" transform="translate(303,239)"/>
<path d="M0 0 C1.32 0.33 2.64 0.66 4 1 C4.29296875 7.0546875 4.29296875 7.0546875 4 9 C3.01 9.66 2.02 10.32 1 11 C0 10 0 10 -0.09765625 7.71484375 C-0.08605469 6.79832031 -0.07445312 5.88179687 -0.0625 4.9375 C-0.05347656 4.01839844 -0.04445313 3.09929687 -0.03515625 2.15234375 C-0.02355469 1.44207031 -0.01195312 0.73179687 0 0 Z " fill="#323232" transform="translate(365,172)"/>
<path d="M0 0 C3.30557238 1.76297193 3.98729426 2.96378864 5.25 6.5625 C6.26769773 11.35639192 6.17987447 16.12340329 6 21 C4.25061528 17.89484212 3.55069834 15.1357019 3 11.625 C2.31923609 7.58904256 1.45377892 3.84213 0 0 Z " fill="#C5C5C5" transform="translate(521,152)"/>
<path d="M0 0 C0.66 0 1.32 0 2 0 C2.13277344 0.99902344 2.26554687 1.99804688 2.40234375 3.02734375 C2.57894531 4.31769531 2.75554687 5.60804688 2.9375 6.9375 C3.11152344 8.22527344 3.28554688 9.51304687 3.46484375 10.83984375 C3.66162423 13.85466313 3.66162423 13.85466313 5 15 C5.04063832 16.66617115 5.042721 18.33388095 5 20 C1.36525801 13.2897071 -0.40989308 7.65133742 0 0 Z " fill="#00A2A2" transform="translate(374,200)"/>
<path d="M0 0 C0.33 0 0.66 0 1 0 C1.33 8.25 1.66 16.5 2 25 C1.67 25 1.34 25 1 25 C-0.23839599 18.34362157 -0.09139136 11.7528064 0 5 C-0.66 5 -1.32 5 -2 5 C-1.34 3.35 -0.68 1.7 0 0 Z " fill="#003535" transform="translate(163,179)"/>
<path d="M0 0 C0.66 0.33 1.32 0.66 2 1 C-2.96426882 6.26820365 -7.46247356 10.80078493 -14 14 C-12.75619293 10.2685788 -11.2196681 9.36809385 -8.125 7 C-5.25035616 4.78744614 -2.4924909 2.64104996 0 0 Z " fill="#DADADA" transform="translate(501,256)"/>
<path d="M0 0 C-0.721875 0.391875 -1.44375 0.78375 -2.1875 1.1875 C-6.502487 3.9682694 -9.55812479 6.19850875 -10.8125 11.3125 C-10.874375 12.199375 -10.93625 13.08625 -11 14 C-11.33 14 -11.66 14 -12 14 C-12.42056594 10.56537817 -12.63981991 8.00514918 -10.734375 5.01171875 C-5.14321629 -1.54296489 -5.14321629 -1.54296489 0 0 Z " fill="#00C1C1" transform="translate(19,108)"/>
<path d="M0 0 C0.66 0.33 1.32 0.66 2 1 C0.90344712 2.31886772 -0.20253423 3.62990057 -1.3125 4.9375 C-1.92738281 5.66839844 -2.54226563 6.39929688 -3.17578125 7.15234375 C-5 9 -5 9 -8 10 C-6.23915938 6.0381086 -3.9706445 1.98532225 0 0 Z " fill="#4F4F4F" transform="translate(280,62)"/>
<path d="M0 0 C0.66 0.33 1.32 0.66 2 1 C1.030625 1.86625 0.06125 2.7325 -0.9375 3.625 C-3.91504038 6.56751049 -4.79692286 8.73538008 -5 13 C-5.66 12.34 -6.32 11.68 -7 11 C-7 7.8860118 -6.77001701 5.82120927 -4.58984375 3.49609375 C-3.10979929 2.26797175 -1.55824823 1.1272434 0 0 Z " fill="#00BDBD" transform="translate(283,69)"/>
<path d="M0 0 C0.66 0.33 1.32 0.66 2 1 C0.73548068 2.31858428 -0.53685475 3.62967631 -1.8125 4.9375 C-2.52019531 5.66839844 -3.22789062 6.39929688 -3.95703125 7.15234375 C-6 9 -6 9 -9 10 C-7.61811547 6.78956118 -6.07578097 4.95063635 -3.375 2.75 C-2.74335938 2.22921875 -2.11171875 1.7084375 -1.4609375 1.171875 C-0.73777344 0.59179688 -0.73777344 0.59179688 0 0 Z " fill="#003A3A" transform="translate(380,100)"/>
<path d="M0 0 C0.66 0.33 1.32 0.66 2 1 C1.030625 1.86625 0.06125 2.7325 -0.9375 3.625 C-3.91504038 6.56751049 -4.79692286 8.73538008 -5 13 C-5.33 13 -5.66 13 -6 13 C-6.32470459 8.86001651 -6.4304413 6.66000999 -4.125 3.125 C-2 1 -2 1 0 0 Z " fill="#00CECE" transform="translate(117,74)"/>
<path d="M0 0 C0.66 0.33 1.32 0.66 2 1 C-0.64 3.64 -3.28 6.28 -6 9 C-6.66 8.67 -7.32 8.34 -8 8 C-5.33333333 5.33333333 -2.66666667 2.66666667 0 0 Z " fill="#D9D9D9" transform="translate(215,129)"/>
</svg>
